#!OML:ASF H:\Terrain\Patient Classification 1\Terrain2\Thursday\justin.ASF
:FULLY-SPECIFIED
:DEGREES
3894
root -3.29551 20.4099 9.72956 717.49 7.5566 -363.659
lowerback 6.68133 2.02753 5.38038
upperback 2.93063 3.06561 2.8031
thorax -0.584619 1.56036 -0.33608
lowerneck -8.74601 -0.772254 -8.63611
upperneck 42.3422 0.488491 2.60847
head 16.8413 -0.688157 2.86678
rclavicle -1.83876e-014 -7.95139e-015
rhumerus -29.487 -5.79436 -81.7974
rradius 33.4489
rwrist -10.9838
rhand -22.3341 12.8622
rfingers 7.12502
rthumb 4.08616 -17.0784
lclavicle -1.83876e-014 -7.95139e-015
lhumerus -39.6698 6.98071 81.8276
lradius 30.8388
lwrist 2.31523
lhand -19.0492 20.4594
lfingers 7.12502
lthumb 7.25769 50.3149
rfemur -9.21831 -5.68743 27.3292
rtibia 36.3373
rfoot -23.0215 1.02777
rtoes 15.0125
lfemur -17.1424 -10.667 -10.6322
ltibia 53.1092
lfoot -4.94479 -17.9976
ltoes -2.59274
3895
root -3.30392 20.4048 9.75898 717.374 7.75722 -363.762
lowerback 6.78806 2.08753 5.60318
upperback 2.94881 3.16494 2.70923
thorax -0.602335 1.61198 -0.566195
lowerneck -8.78087 -0.912132 -8.4678
upperneck 42.2585 0.173623 2.75346
head 16.8238 -0.769109 2.85104
rclavicle -3.21037e-014 -1.74931e-014
rhumerus -29.8549 -6.44701 -81.9094
rradius 33.8287
rwrist -10.9441
rhand -22.2899 12.3678
rfingers 7.12502
rthumb 4.12885 -17.5719
lclavicle -3.21037e-014 -1.74931e-014
lhumerus -39.747 5.89669 82.1839
lradius 31.0667
lwrist 3.24749
lhand -19.6986 21.0188
lfingers 7.12502
lthumb 6.63074 50.895
rfemur -8.89238 -6.5079 27.3385
rtibia 36.0971
rfoot -23.0503 1.69278
rtoes 15.4494
lfemur -17.9295 -10.1546 -10.5354
ltibia 54.554
lfoot -2.85113 -17.9218
ltoes -0.720471
3896
root -3.31573 20.4006 9.78372 717.257 7.91388 -364.387
lowerback 6.87744 2.22097 6.36799
upperback 2.87938 3.40146 2.74012
thorax -0.666337 1.73237 -0.977711
lowerneck -8.65448 -1.14428 -8.53017
upperneck 42.271 -0.313862 3.10683
head 16.8376 -0.931781 2.94715
rclavicle 4.87022e-015 1.66979e-014
rhumerus -30.2689 -7.27441 -81.9367
rradius 34.0023
rwrist -10.8861
rhand -21.9806 12.0517
rfingers 7.12502
rthumb 4.42755 -17.882
lclavicle 4.87022e-015 1.66979e-014
lhumerus -39.753 4.89422 82.4267
lradius 30.9939
lwrist 3.57589
lhand -20.0949 20.7789
lfingers 7.12502
lthumb 6.24816 50.6667
rfemur -8.659 -6.69031 28.0597
rtibia 35.8402
rfoot -23.0289 1.69079
rtoes 15.5924
lfemur -18.9557 -9.42279 -9.77186
ltibia 56.062
lfoot -0.579888 -17.7689
ltoes 2.62343
3897
root -3.32768 20.4047 9.81218 717.237 8.07994 -364.734
lowerback 6.87179 2.25859 6.80137
upperback 2.81743 3.48185 2.73743
thorax -0.69459 1.77332 -1.22587
lowerneck -8.55998 -1.26668 -8.49187
upperneck 42.3366 -0.582459 3.27149
head 16.8727 -1.01574 2.97535
rclavicle -1.75924e-014 2.70347e-014
rhumerus -30.5839 -7.62868 -82.079
rradius 34.1201
rwrist -11.1386
rhand -21.7527 12.1319
rfingers 7.12502
rthumb 4.64754 -17.7971
lclavicle -1.75924e-014 2.70347e-014
lhumerus -39.7233 4.71434 82.2525
lradius 30.8123
lwrist 2.93237
lhand -19.2678 20.5013
lfingers 7.12502
lthumb 7.04662 50.364
rfemur -8.42981 -6.69612 28.5189
rtibia 35.5181
rfoot -23.0281 1.39025
rtoes 15.1009
lfemur -20.1091 -8.80169 -9.30182
ltibia 57.5764
lfoot 1.83869 -17.4566
ltoes 6.34428
3898
root -3.33974 20.4014 9.84124 717.244 8.19297 -364.815
lowerback 6.69325 1.61709 6.35163
upperback 3.22608 2.57136 3.38546
thorax -0.286993 1.33073 -0.235241
lowerneck -9.61946 -0.748884 -9.75675
upperneck 42.3231 0.784177 2.95149
head 17.0364 -0.704983 3.28233
rclavicle -8.44835e-015 -3.18055e-015
rhumerus -29.6285 -5.07886 -82.1987
rradius 33.9384
rwrist -12.3776
rhand -21.0056 12.7647
rfingers 7.12502
rthumb 5.36889 -17.1473
lclavicle -8.44835e-015 -3.18055e-015
lhumerus -39.4673 7.66176 82.1305
lradius 30.6683
lwrist 2.00926
lhand -18.7079 20.0952
lfingers 7.12502
lthumb 7.58713 49.9391
rfemur -8.17644 -6.7296 28.6496
rtibia 35.1441
rfoot -22.6808 1.45551
rtoes 16.2646
lfemur -21.1714 -8.12209 -9.19146
ltibia 59.0693
lfoot 3.72968 -17.1448
ltoes 8.84032
3899
root -3.35361 20.3981 9.86542 717.088 8.34169 -365.229
lowerback 6.89384 1.6795 6.83086
upperback 3.18635 2.70471 3.38335
thorax -0.408207 1.39807 -0.518437
lowerneck -9.40863 -0.840602 -9.25217
upperneck 42.1459 0.582498 2.69374
head 16.8989 -0.732605 3.03252
rclavicle -1.92821e-014 1.35174e-014
rhumerus -29.9592 -5.45899 -82.3507
rradius 33.8437
rwrist -13.2313
rhand -20.4894 13.4455
rfingers 7.12502
rthumb 5.86733 -16.4532
lclavicle -1.92821e-014 1.35174e-014
lhumerus -39.4213 7.17697 82.0629
lradius 30.5869
lwrist 2.01004
lhand -18.8601 19.7518
lfingers 7.12502
lthumb 7.44022 49.601
rfemur -7.88048 -6.8845 29.1097
rtibia 34.7622
rfoot -22.8949 1.29095
rtoes 16.0334
lfemur -22.1739 -7.42128 -8.74945
ltibia 60.5976
lfoot 4.77281 -17.2869
ltoes 7.32375
3900
root -3.36674 20.3978 9.89021 716.868 8.60022 -365.683
lowerback 7.16589 1.55794 7.19333
upperback 3.20254 2.59587 3.57762
thorax -0.539858 1.34277 -0.520124
lowerneck -9.43565 -0.81197 -9.16405
upperneck 42.0558 0.695857 2.46657
head 16.849 -0.698109 2.92842
rclavicle 3.48867e-014 -2.54444e-014
rhumerus -30.1287 -4.95153 -82.6165
rradius 33.9093
rwrist -13.6977
rhand -21.502 13.5027
rfingers 7.12502
rthumb 4.88962 -16.4208
lclavicle 3.48867e-014 -2.54444e-014
lhumerus -39.3994 7.31812 82.1165
lradius 30.5387
lwrist 1.94854
lhand -18.3667 20.133
lfingers 7.12502
lthumb 7.91642 49.9648
rfemur -7.51624 -7.25475 29.6045
rtibia 34.39
rfoot -22.8901 1.14713
rtoes 15.1449
lfemur -23.2007 -6.91886 -8.28798
ltibia 62.1659
lfoot 5.36178 -17.6835
ltoes 4.81165
3901
root -3.37672 20.3939 9.91757 716.624 8.83869 -366.128
lowerback 7.43855 1.38225 7.58588
upperback 3.21904 2.4196 3.73701
thorax -0.673294 1.25398 -0.568296
lowerneck -9.44429 -0.752577 -9.00327
upperneck 41.9432 0.841339 2.2097
head 16.7792 -0.643326 2.80196
rclavicle 3.86636e-014 -7.15625e-015
rhumerus -30.3598 -4.31014 -82.9855
rradius 34.1697
rwrist -14.0294
rhand -22.1066 12.9121
rfingers 7.12502
rthumb 4.30587 -17.0241
lclavicle 3.86636e-014 -7.15625e-015
lhumerus -39.3915 7.58537 82.0603
lradius 30.3955
lwrist 1.76789
lhand -17.3711 20.8152
lfingers 7.12502
lthumb 8.87721 50.6085
rfemur -7.01661 -7.66483 30.0961
rtibia 33.9759
rfoot -22.8691 0.983428
rtoes 14.269
lfemur -24.1866 -6.45961 -7.84774
ltibia 63.7627
lfoot 5.33296 -18.0196
ltoes 2.81431
3902
root -3.38467 20.398 9.94611 716.507 8.96463 -366.313
lowerback 7.59423 1.27884 7.77572
upperback 3.27009 2.30994 3.78981
thorax -0.707146 1.20073 -0.614076
lowerneck -9.45903 -0.735669 -8.87081
upperneck 41.743 0.880922 2.05971
head 16.6691 -0.620249 2.71005
rclavicle -1.14301e-014 -4.29375e-014
rhumerus -30.4602 -4.37862 -83.0614
rradius 34.3279
rwrist -13.0972
rhand -21.2732 11.6455
rfingers 7.12502
rthumb 5.11058 -18.2729
lclavicle -1.14301e-014 -4.29375e-014
lhumerus -39.218 7.8378 81.9866
lradius 30.1236
lwrist 1.52189
lhand -17.5093 20.7513
lfingers 7.12502
lthumb 8.74392 50.5502
rfemur -6.5705 -7.87289 30.313
rtibia 33.4959
rfoot -22.776 0.911813
rtoes 14.646
lfemur -25.2202 -5.92431 -7.75505
ltibia 65.3175
lfoot 4.55469 -17.9135
ltoes 0.183881
3903
root -3.39197 20.3941 9.98567 716.233 8.92691 -366.561
lowerback 7.73344 1.29374 8.0801
upperback 3.47917 2.35216 3.87086
thorax -0.5526 1.2333 -0.700461
lowerneck -9.68799 -0.79825 -9.03741
upperneck 41.6385 0.797968 2.19433
head 16.6743 -0.660428 2.78705
rclavicle -1.68967e-014 1.98785e-014
rhumerus -30.4176 -4.578 -83.0387
rradius 34.3171
rwrist -12.5042
rhand -20.9242 11.2829
rfingers 7.12502
rthumb 5.44751 -18.6271
lclavicle -1.68967e-014 1.98785e-014
lhumerus -38.7068 7.99611 82.104
lradius 29.6761
lwrist 1.41831
lhand -18.5016 20.6667
lfingers 7.12502
lthumb 7.78623 50.5033
rfemur -5.94186 -7.95914 30.5752
rtibia 33.0182
rfoot -22.6667 0.832325
rtoes 14.5109
lfemur -25.9365 -5.28414 -7.64329
ltibia 66.7827
lfoot 3.49581 -17.4954
ltoes -1.6451
3904
root -3.39884 20.3831 10.0362 715.591 8.76608 -367.307
lowerback 8.11623 1.33028 8.78136
upperback 3.59614 2.49227 4.1459
thorax -0.610161 1.30883 -0.820398
lowerneck -9.49167 -0.848387 -9.26254
upperneck 41.7609 0.718144 2.32781
head 16.7006 -0.71177 2.8776
rclavicle 2.0773e-014 -5.80451e-014
rhumerus -30.813 -4.49681 -83.0051
rradius 34.2923
rwrist -12.7393
rhand -21.3033 11.6512
rfingers 7.12502
rthumb 5.08151 -18.2678
lclavicle 2.0773e-014 -5.80451e-014
lhumerus -38.7195 7.90283 82.3394
lradius 29.5324
lwrist 1.59775
lhand -18.9905 21.0245
lfingers 7.12502
lthumb 7.3143 50.878
rfemur -4.9345 -7.91027 31.3669
rtibia 32.5477
rfoot -22.6633 0.588796
rtoes 13.3906
lfemur -26.2432 -4.52381 -6.95024
ltibia 68.175
lfoot 2.62298 -17.29
ltoes -1.75946
3905
root -3.40719 20.3751 10.0809 715.15 8.62291 -367.72
lowerback 8.37915 1.3215 9.05244
upperback 3.75986 2.525 4.39268
thorax -0.57921 1.33127 -0.720056
lowerneck -9.52041 -0.827749 -9.33901
upperneck 41.8985 0.865588 2.12831
head 16.78 -0.692699 2.82962
rclavicle -4.37326e-014 1.19271e-014
rhumerus -30.9063 -4.41649 -82.8976
rradius 34.1804
rwrist -12.7033
rhand -21.2251 11.7285
rfingers 7.12502
rthumb 5.15701 -18.1887
lclavicle -4.37326e-014 1.19271e-014
lhumerus -38.7389 8.06892 82.5275
lradius 29.7022
lwrist 1.47644
lhand -19.0111 20.6687
lfingers 7.12502
lthumb 7.29444 50.523
rfemur -4.11418 -7.83445 31.8312
rtibia 32.0779
rfoot -22.5919 0.414647
rtoes 12.8443
lfemur -26.7478 -3.68964 -6.62819
ltibia 69.4694
lfoot 1.83309 -16.9153
ltoes -0.0957121
3906
root -3.4165 20.372 10.1205 715.007 8.59313 -367.582
lowerback 8.37918 1.39149 8.84402
upperback 3.96868 2.58451 4.40776
thorax -0.367221 1.37096 -0.589723
lowerneck -9.71271 -0.858298 -9.23073
upperneck 41.8705 0.864728 2.00104
head 16.8151 -0.692002 2.75412
rclavicle -4.17448e-015 -4.29375e-014
rhumerus -30.8052 -4.62218 -82.8523
rradius 34.0333
rwrist -12.7681
rhand -21.2602 11.8452
rfingers 7.12502
rthumb 5.12311 -18.0729
lclavicle -4.17448e-015 -4.29375e-014
lhumerus -38.4104 8.20546 82.6061
lradius 29.6843
lwrist 1.14361
lhand -19.0223 20.0154
lfingers 7.12502
lthumb 7.28364 49.87
rfemur -3.58138 -7.74815 31.7176
rtibia 31.6289
rfoot -22.4086 0.403401
rtoes 13.5847
lfemur -27.4789 -2.98776 -6.97994
ltibia 70.6311
lfoot 0.793179 -16.2069
ltoes 0.251473
